<svg version="1.2" xmlns="http://www.w3.org/2000/svg" viewBox="0 0 328 54" width="328" height="54">
	<title>logo</title>
	<style>
		.s0 { fill: #ffffff } 
	</style>
	<path id="el_dev" class="s0" aria-label="el_dev"  d="m58 30.9c0-6.5-4.4-11-10.4-11-6 0-10.5 4.6-10.5 11.1 0 6.5 4.6 11.2 11.3 11.2 3.3 0 6.3-1.3 8.3-3.6l-1.3-1.4c-1.6 2.1-4.2 3.1-7 3.1-5.2 0-9.1-3.6-9.3-8.8h18.9c0-0.2 0-0.4 0-0.6zm-10.4-9.2c4.6 0 8.1 3.4 8.4 8.2h-16.8c0.3-4.8 3.7-8.2 8.4-8.2zm16.9 20.3h2.1v-31.2h-2.1zm6.5 1.5h21v-1.5h-21zm41.9-32.7v14.3c-1.8-3.3-5.1-5.2-9-5.2-6.2 0-10.8 4.5-10.8 11.1 0 6.6 4.6 11.2 10.8 11.2 4 0 7.3-2 9-5.4v5.2h2.1v-31.2zm-8.9 29.5c-5 0-8.8-3.8-8.8-9.3 0-5.5 3.8-9.2 8.8-9.2 5.1 0 8.9 3.7 8.9 9.2 0 5.5-3.8 9.3-8.9 9.3zm38-9.4c0-6.5-4.4-11-10.4-11-6 0-10.5 4.6-10.5 11.1 0 6.5 4.6 11.2 11.3 11.2 3.3 0 6.3-1.3 8.3-3.6l-1.3-1.4c-1.6 2.1-4.2 3.1-7 3.1-5.2 0-9.1-3.6-9.3-8.8h18.9c0-0.2 0-0.4 0-0.6zm-10.4-9.2c4.6 0 8.1 3.4 8.4 8.2h-16.8c0.3-4.8 3.7-8.2 8.4-8.2zm32.3-1.7l-8.8 19.7-8.7-19.7h-2.3l9.9 22h2.2l9.9-22z"/>
	<path id="REAL ESTATES" class="s0" aria-label="REAL
ESTATES"  d="m189.7 20l-4.2-6c2.4-1 3.8-3.1 3.8-5.8 0-4.2-3.1-6.8-8.1-6.8h-8v18.6h4.3v-5.2h3.7 0.3l3.5 5.2zm-4.7-11.8c0 2-1.3 3.2-3.9 3.2h-3.5v-6.5h3.5c2.6 0 3.9 1.2 3.9 3.3zm11.6 8.3v-4.3h8.6v-3.3h-8.6v-4h9.7v-3.5h-14v18.6h14.4v-3.5zm27.6 3.5h4.5l-8.3-18.6h-4.3l-8.2 18.6h4.4l1.6-4h8.6zm-8.9-7.2l3-7.1 2.9 7.1zm16 7.2h13.7v-3.5h-9.3v-15.1h-4.4zm-53.7 28.6v-4.3h8.7v-3.4h-8.7v-4h9.8v-3.5h-14.1v18.6h14.4v-3.4zm19.9 3.7c5.3 0 7.9-2.6 7.9-5.7 0-6.8-10.8-4.5-10.8-7.9 0-1.2 0.9-2.1 3.5-2.1 1.6 0 3.4 0.5 5.1 1.4l1.4-3.2c-1.8-1.1-4.2-1.7-6.5-1.7-5.3 0-7.8 2.7-7.8 5.8 0 6.9 10.8 4.5 10.8 8 0 1.1-1.1 2-3.6 2-2.2 0-4.6-0.8-6.1-1.9l-1.5 3.2c1.7 1.3 4.6 2.1 7.6 2.1zm13.7-0.3h4.3v-15.1h6v-3.5h-16.2v3.5h5.9zm26.1 0h4.5l-8.3-18.5h-4.3l-8.3 18.5h4.4l1.7-3.9h8.6zm-8.9-7.3l3-7.1 2.9 7.1zm17.9 7.3h4.3v-15.1h5.9v-3.5h-16.2v3.5h6zm17.4-3.5v-4.3h8.6v-3.3h-8.6v-4.1h9.8v-3.4h-14.1v18.6h14.4v-3.5zm19.8 3.8c5.3 0 7.9-2.7 7.9-5.8 0-6.8-10.8-4.4-10.8-7.8 0-1.2 1-2.2 3.5-2.2 1.7 0 3.5 0.5 5.2 1.5l1.3-3.3c-1.7-1.1-4.1-1.6-6.4-1.6-5.3 0-7.9 2.6-7.9 5.8 0 6.9 10.8 4.5 10.8 8 0 1.1-1 1.9-3.5 1.9-2.3 0-4.6-0.7-6.2-1.9l-1.4 3.3c1.6 1.2 4.6 2.1 7.5 2.1z"/>
</svg>